<?xml version="1.0" encoding="UTF-8"?><svg id="Layer_2" xmlns="http://www.w3.org/2000/svg" width="79.05mm" height="47.78mm" viewBox="0 0 224.07 135.44"><defs><style>.cls-1{stroke-width:3.2px;}.cls-1,.cls-2,.cls-3{fill:none;stroke:#fff;stroke-miterlimit:10;}.cls-2{stroke-width:5px;}.cls-3{stroke-width:4px;}.cls-4{fill:#fff;stroke-width:0px;}</style></defs><g id="Layer_1-2"><circle class="cls-2" cx="27.92" cy="38.22" r="22.58"/><circle class="cls-2" cx="85.69" cy="32.97" r="30.47"/><rect class="cls-2" x="2.5" y="63.43" width="110.48" height="69.51" rx="12" ry="12"/><path class="cls-4" d="m115.49,89.87c10.13-6,20.25-11.99,30.38-17.99l-4.51-2.59c.21,19.26.42,38.52.63,57.78l4.51-2.59c-10.34-5.82-20.67-11.64-31.01-17.46-3.37-1.9-6.4,3.28-3.03,5.18,10.34,5.82,20.67,11.64,31.01,17.46,1.96,1.1,4.54-.28,4.51-2.59-.21-19.26-.42-38.52-.63-57.78-.02-2.26-2.54-3.76-4.51-2.59-10.13,6-20.25,11.99-30.38,17.99-3.32,1.97-.31,7.15,3.03,5.18h0Z"/><path class="cls-3" d="m216.67,54.77l-7.28-2.48c-1.31,4.35-5.69,6.75-9.78,5.36s-6.34-6.05-5.03-10.4l-7.28-2.48c-4.07-1.39-8.46,1.02-9.76,5.35l-16.51,54.86c-1.3,4.33.96,9,5.03,10.38l7.38,2.51c.06-.42.14-.85.27-1.27,1.31-4.35,5.69-6.75,9.78-5.36,4.09,1.39,6.34,6.05,5.03,10.4-.13.42-.29.82-.47,1.2l7.38,2.51c4.07,1.39,8.46-1.02,9.76-5.35l16.51-54.86c1.3-4.33-.96-9-5.03-10.38Z"/><path class="cls-1" d="m179.64,59.51l-3.02-1.03s-.02-.02-.02-.04v-.03s.03-.03.05-.02l3.02,1.03s.02.02.02.04v.03s-.03.03-.05.02Z"/><path class="cls-1" d="m187.37,62.14l-3.02-1.03s-.02-.02-.02-.04v-.03s.03-.03.05-.02l3.02,1.03s.02.02.02.04v.03s-.03.03-.05.02Z"/><path class="cls-1" d="m195.11,64.81l-3.02-1.03s-.02-.02-.02-.04v-.03s.03-.03.05-.02l3.02,1.03s.02.02.02.04v.03s-.03.03-.05.02Z"/><path class="cls-1" d="m202.81,67.43l-3.02-1.03s-.02-.02-.02-.04v-.03s.03-.03.05-.02l3.02,1.03s.02.02.02.04v.03s-.03.03-.05.02Z"/><path class="cls-1" d="m210.57,70.17l-3.02-1.03s-.02-.02-.02-.04v-.03s.03-.03.05-.02l3.02,1.03s.02.02.02.04v.03s-.03.03-.05.02Z"/><path class="cls-1" d="m218.28,72.8l-3.02-1.03s-.02-.02-.02-.04v-.03s.03-.03.05-.02l3.02,1.03s.02.02.02.04v.03s-.03.03-.05.02Z"/><path class="cls-3" d="m172.63,56.86c-2.4-1.28-4.11-3.84-4.29-6.89l-7.63.51c-4.26.28-7.53,4.22-7.27,8.76l3.37,57.5c.27,4.53,3.97,8.01,8.23,7.73l7.74-.51c-.09-.42-.15-.84-.18-1.28-.03-.46-.02-.92.03-1.37"/><path class="cls-1" d="m158.61,67.18l-3.16.21s-.03-.01-.03-.03v-.03s.01-.03.03-.03l3.16-.21s.03.01.03.03v.03s-.01.03-.03.03Z"/><path class="cls-1" d="m166.72,66.64l-3.16.21s-.03-.01-.03-.03v-.03s.01-.03.03-.03l3.16-.21s.03.01.03.03v.03s-.01.03-.03.03Z"/></g></svg>