<?xml version="1.0" encoding="UTF-8"?><svg id="Layer_2" xmlns="http://www.w3.org/2000/svg" width="48.19mm" height="44.86mm" viewBox="0 0 136.59 127.17"><defs><style>.cls-1{stroke-width:2.5px;}.cls-1,.cls-2,.cls-3{fill:none;stroke:#fff;stroke-miterlimit:10;}.cls-2{stroke-width:2px;}.cls-3{stroke-width:4px;}</style></defs><g id="Layer_1-2"><rect class="cls-3" x="2" y="2" width="132.59" height="95.45" rx="12" ry="12"/><rect class="cls-3" x="46.85" y="116.01" width="42.88" height="9.16" rx="4.58" ry="4.58"/><line class="cls-3" x1="79.04" y1="99.4" x2="83.07" y2="115.09"/><line class="cls-3" x1="59.08" y1="97.7" x2="54.52" y2="114.19"/><line class="cls-3" x1="2" y1="78.03" x2="134.59" y2="78.3"/><rect class="cls-3" x="63.33" y="85.28" width="9.94" height="1.84" rx=".92" ry=".92"/><path class="cls-2" d="m90.86,50.06l-1.13-5.17c-2.91.63-5.78-1.21-6.41-4.11s1.21-5.78,4.11-6.41l-1.13-5.17c-.63-2.89-3.51-4.74-6.4-4.1l-36.63,8c-2.89.63-4.74,3.51-4.1,6.4l1.15,5.24c.26-.1.53-.19.81-.25,2.91-.63,5.78,1.21,6.41,4.11s-1.21,5.78-4.11,6.41c-.28.06-.56.09-.84.11l1.15,5.24c.63,2.89,3.51,4.74,6.4,4.1l36.63-8c2.89-.63,4.74-3.51,4.1-6.4Z"/><rect class="cls-1" x="74.01" y="28.31" width="2.24" height=".06" rx=".03" ry=".03" transform="translate(86.78 -51.11) rotate(77.68)"/><rect class="cls-1" x="75.21" y="33.8" width="2.24" height=".06" rx=".03" ry=".03" transform="translate(93.09 -47.96) rotate(77.68)"/><rect class="cls-1" x="76.4" y="39.3" width="2.24" height=".06" rx=".03" ry=".03" transform="translate(99.4 -44.79) rotate(77.68)"/><rect class="cls-1" x="77.6" y="44.77" width="2.24" height=".06" rx=".03" ry=".03" transform="translate(105.68 -41.66) rotate(77.68)"/><rect class="cls-1" x="78.74" y="50.31" width="2.24" height=".06" rx=".03" ry=".03" transform="translate(112 -38.42) rotate(77.68)"/><rect class="cls-1" x="79.94" y="55.8" width="2.24" height=".06" rx=".03" ry=".03" transform="translate(118.3 -35.28) rotate(77.68)"/></g></svg>