<?xml version="1.0" encoding="UTF-8"?><svg id="Layer_2" xmlns="http://www.w3.org/2000/svg" width="36.11mm" height="43.46mm" viewBox="0 0 102.36 123.19"><defs><style>.cls-1{stroke-width:5px;}.cls-1,.cls-2{fill:none;stroke:#fff;stroke-miterlimit:10;}.cls-2{stroke-width:4px;}</style></defs><g id="Layer_1-2"><path class="cls-2" d="m92.64,19.77l-11.04-4.21c-2.37,6.2-9.31,9.31-15.51,6.95s-9.31-9.31-6.95-15.51l-11.04-4.21c-6.17-2.35-13.14.77-15.49,6.94L2.78,87.93c-2.35,6.17.77,13.14,6.94,15.49l11.2,4.27c.13-.61.29-1.22.52-1.81,2.37-6.2,9.31-9.31,15.51-6.95s9.31,9.31,6.95,15.51c-.23.6-.51,1.16-.82,1.7l11.2,4.27c6.17,2.35,13.14-.77,15.49-6.94l29.82-78.21c2.35-6.17-.77-13.14-6.94-15.49Z"/><rect class="cls-1" x="30.35" y="22.53" width="4.99" height=".13" rx=".07" ry=".07" transform="translate(10.21 -10.22) rotate(20.87)"/><rect class="cls-1" x="42.07" y="27" width="4.99" height=".13" rx=".07" ry=".07" transform="translate(12.57 -14.1) rotate(20.87)"/><rect class="cls-1" x="53.81" y="31.51" width="4.99" height=".13" rx=".07" ry=".07" transform="translate(14.95 -17.99) rotate(20.87)"/><rect class="cls-1" x="65.49" y="35.97" width="4.99" height=".13" rx=".07" ry=".07" transform="translate(17.3 -21.86) rotate(20.87)"/><rect class="cls-1" x="77.24" y="40.59" width="4.99" height=".13" rx=".07" ry=".07" transform="translate(19.72 -25.74) rotate(20.87)"/><rect class="cls-1" x="88.94" y="45.05" width="4.99" height=".13" rx=".07" ry=".07" transform="translate(22.07 -29.62) rotate(20.87)"/></g></svg>