<?xml version="1.0" encoding="UTF-8"?><svg id="Layer_2" xmlns="http://www.w3.org/2000/svg" width="75.37mm" height="56.47mm" viewBox="0 0 213.64 160.07"><defs><style>.cls-1{stroke-width:3.2px;}.cls-1,.cls-2,.cls-3{fill:none;stroke:#fff;stroke-miterlimit:10;}.cls-2{stroke-width:5px;}.cls-3{stroke-width:4px;}</style></defs><g id="Layer_1-2"><ellipse class="cls-2" cx="107.42" cy="32.7" rx="31.85" ry="30.2"/><ellipse class="cls-2" cx="176.34" cy="43.03" rx="23.26" ry="24.62"/><ellipse class="cls-2" cx="37.3" cy="43.96" rx="23.26" ry="24.62"/><path class="cls-2" d="m149.9,92.28c5.09-14.09,15.69-23.98,27.76-24.6,17.76-.91,33.34,18.54,33.47,43.04"/><path class="cls-2" d="m2.5,113.79c.11-23.23,14.99-42.18,32.92-43.04,11.8-.57,22.7,6.82,29.25,18.41"/><path class="cls-2" d="m52.82,118.01c4.37-30.86,27.72-53.18,52.44-54.11,30.39-1.15,59.96,30.15,56.79,69.68"/><path class="cls-3" d="m144.91,152.21l2-7.41c-4.44-1.05-7.12-5.28-6-9.44s5.63-6.69,10.06-5.63l2-7.41c1.11-4.14-1.58-8.38-5.99-9.43l-55.92-13.27c-4.41-1.05-8.93,1.48-10.05,5.62l-2.02,7.51c.43.04.86.1,1.28.2,4.44,1.05,7.12,5.28,6,9.44-1.12,4.16-5.63,6.69-10.06,5.63-.43-.1-.83-.24-1.23-.4l-2.02,7.51c-1.11,4.14,1.58,8.38,5.99,9.43l55.92,13.27c4.41,1.05,8.93-1.48,10.05-5.62Z"/><path class="cls-1" d="m137.72,115.52l.83-3.07s.02-.03.04-.02h.03s.03.03.02.04l-.83,3.07s-.02.03-.04.02h-.03s-.03-.03-.02-.04Z"/><path class="cls-1" d="m135.6,123.39l.83-3.07s.02-.03.04-.02h.03s.03.03.02.04l-.83,3.07s-.02.03-.04.02h-.03s-.03-.03-.02-.04Z"/><path class="cls-1" d="m133.45,131.27l.83-3.07s.02-.03.04-.02h.03s.03.03.02.04l-.83,3.07s-.02.03-.04.02h-.03s-.03-.03-.02-.04Z"/><path class="cls-1" d="m131.34,139.11l.83-3.07s.02-.03.04-.02h.03s.03.03.02.04l-.83,3.07s-.02.03-.04.02h-.03s-.03-.03-.02-.04Z"/><path class="cls-1" d="m129.12,147.01l.83-3.07s.02-.03.04-.02h.03s.03.03.02.04l-.83,3.07s-.02.03-.04.02h-.03s-.03-.03-.02-.04Z"/><path class="cls-1" d="m127,154.87l.83-3.07s.02-.03.04-.02h.03s.03.03.02.04l-.83,3.07s-.02.03-.04.02h-.03s-.03-.03-.02-.04Z"/><path class="cls-3" d="m139.9,108.37c1.12-2.47,3.56-4.33,6.6-4.69l-1.01-7.59c-.56-4.24-4.72-7.27-9.23-6.74l-57.24,6.72c-4.51.53-7.74,4.43-7.18,8.67l1.03,7.69c.41-.11.83-.2,1.27-.25.46-.05.92-.07,1.37-.05"/><path class="cls-1" d="m128.67,94.98l-.42-3.14s.01-.03.03-.03h.03s.03,0,.04.02l.42,3.14s-.01.03-.03.03h-.03s-.03,0-.04-.02Z"/><path class="cls-1" d="m129.74,103.04l-.42-3.14s.01-.03.03-.03h.03s.03,0,.04.02l.42,3.14s-.01.03-.03.03h-.03s-.03,0-.04-.02Z"/></g></svg>