<svg width="161" height="146" viewBox="0 0 161 146" fill="none" xmlns="http://www.w3.org/2000/svg">
<g clip-path="url(#clip0_294_1477)">
<path d="M0 91.3862C0 81.545 7.01549 74.4365 16.433 74.4365C21.4275 74.4365 25.7262 76.3684 28.5755 79.9433L24.8896 83.6585C22.6533 81.0661 19.8952 79.7947 16.6897 79.7947C10.3369 79.7947 5.73166 84.5997 5.73166 91.3779C5.73166 98.1562 10.3369 102.961 16.6897 102.961C19.8869 102.961 22.6533 101.69 24.8896 99.0561L28.5755 102.821C25.7262 106.396 21.4275 108.328 16.3916 108.328C7.01549 108.328 0 101.219 0 91.3779V91.3862Z" fill="white"/>
<path d="M96.6513 86.6307C96.6513 93.8795 91.6568 98.3543 83.5895 98.3543H76.6651V107.865H70.9666V74.9071H83.5895C91.6568 74.9071 96.6513 79.3323 96.6513 86.6307ZM90.9114 86.6307C90.9114 82.4862 88.3272 80.0836 83.3327 80.0836H76.6734V93.1695H83.3327C88.3272 93.1695 90.9114 90.767 90.9114 86.6224V86.6307Z" fill="white"/>
<path d="M125.798 102.73V107.865H102.789V74.9071H125.185V80.0341H108.487V88.6039H123.305V93.6401H108.487V102.722H125.798V102.73Z" fill="white"/>
<path d="M159.418 74.9071V107.865H154.73L137.808 85.5492V107.865H132.151V74.9071H136.839L153.761 97.2232V74.9071H159.418Z" fill="white"/>
<path d="M29.4535 112.571V145.529H23.7549V131.403H7.88519V145.529H2.19495V112.571H7.89347V126.177H23.7632V112.571H29.4617H29.4535Z" fill="white"/>
<path d="M57.5982 137.901H42.2586L39.2354 145.529H33.3629L47.1703 112.571H52.7777L66.6264 145.529H60.6628L57.5982 137.901ZM55.7098 133.096L49.9284 118.689L44.1885 133.096H55.718H55.7098Z" fill="white"/>
<path d="M91.4746 128.671H96.8667V141.806C93.6696 144.58 89.1969 146 84.8567 146C75.3481 146 68.3326 138.892 68.3326 129.05C68.3326 119.209 75.3481 112.101 84.9478 112.101C90.0748 112.101 94.3736 113.934 97.2643 117.467L93.6696 121.232C91.2593 118.639 88.5011 117.467 85.2129 117.467C78.6861 117.467 74.0809 122.223 74.0809 129.05C74.0809 135.878 78.6861 140.634 85.1715 140.634C87.3664 140.634 89.5116 140.163 91.4829 138.941V128.679L91.4746 128.671Z" fill="white"/>
<path d="M127.38 140.394V145.529H104.371V112.571H126.767V117.698H110.069V126.268H124.887V131.304H110.069V140.386H127.38V140.394Z" fill="white"/>
<path d="M161 112.571V145.529H156.312L139.39 123.213V145.529H133.733V112.571H138.421L155.343 134.887V112.571H161Z" fill="white"/>
<path d="M7.81897 39.885V0H20.9885V39.3814C20.9885 53.9203 27.5733 60.1866 39.0201 60.1866C50.4668 60.1866 56.9522 53.9285 56.9522 39.3814V0H69.923V39.885C69.923 60.4838 58.2692 71.6955 38.9207 71.6955C19.5722 71.6955 7.81897 60.4921 7.81897 39.885Z" fill="white"/>
<path d="M104.379 25.1479L122.32 0H136.607L111.784 34.1305L84.9312 70.6883H69.9312L96.2786 34.6341" fill="white"/>
<path d="M71.3475 0C97.5459 35.9551 123.736 71.9102 149.934 107.857H159.418V99.3616C135.025 66.2466 110.633 33.1233 86.2482 0H71.3558H71.3475Z" fill="url(#paint0_linear_294_1477)"/>
<path d="M33.5038 88.0756C34.565 88.0756 35.4253 87.218 35.4253 86.1602C35.4253 85.1023 34.565 84.2448 33.5038 84.2448C32.4425 84.2448 31.5822 85.1023 31.5822 86.1602C31.5822 87.218 32.4425 88.0756 33.5038 88.0756Z" fill="white"/>
<path d="M36.9825 85.5079C38.0438 85.5079 38.9041 84.6504 38.9041 83.5925C38.9041 82.5347 38.0438 81.6771 36.9825 81.6771C35.9212 81.6771 35.0609 82.5347 35.0609 83.5925C35.0609 84.6504 35.9212 85.5079 36.9825 85.5079Z" fill="white"/>
<path d="M38.5313 80.0837C39.5926 80.0837 40.4529 79.2262 40.4529 78.1683C40.4529 77.1105 39.5926 76.2529 38.5313 76.2529C37.4701 76.2529 36.6097 77.1105 36.6097 78.1683C36.6097 79.2262 37.4701 80.0837 38.5313 80.0837Z" fill="white"/>
<path d="M45.1161 78.5068C46.1773 78.5068 47.0377 77.6493 47.0377 76.5914C47.0377 75.5336 46.1773 74.676 45.1161 74.676C44.0548 74.676 43.1945 75.5336 43.1945 76.5914C43.1945 77.6493 44.0548 78.5068 45.1161 78.5068Z" fill="white"/>
<path d="M49.6882 77.5822C50.7495 77.5822 51.6098 76.7246 51.6098 75.6667C51.6098 74.6089 50.7495 73.7513 49.6882 73.7513C48.6269 73.7513 47.7666 74.6089 47.7666 75.6667C47.7666 76.7246 48.6269 77.5822 49.6882 77.5822Z" fill="white"/>
<path d="M54.0615 77.5822C55.1228 77.5822 55.9831 76.7246 55.9831 75.6667C55.9831 74.6089 55.1228 73.7513 54.0615 73.7513C53.0002 73.7513 52.1399 74.6089 52.1399 75.6667C52.1399 76.7246 53.0002 77.5822 54.0615 77.5822Z" fill="white"/>
<path d="M57.7556 79.8278C58.8168 79.8278 59.6772 78.9702 59.6772 77.9123C59.6772 76.8545 58.8168 75.9969 57.7556 75.9969C56.6943 75.9969 55.834 76.8545 55.834 77.9123C55.834 78.9702 56.6943 79.8278 57.7556 79.8278Z" fill="white"/>
<path d="M62.4105 84.707C63.4718 84.707 64.3321 83.8495 64.3321 82.7916C64.3321 81.7338 63.4718 80.8762 62.4105 80.8762C61.3492 80.8762 60.4889 81.7338 60.4889 82.7916C60.4889 83.8495 61.3492 84.707 62.4105 84.707Z" fill="white"/>
<path d="M64.8621 89.8258C65.9234 89.8258 66.7837 88.9682 66.7837 87.9104C66.7837 86.8526 65.9234 85.995 64.8621 85.995C63.8009 85.995 62.9406 86.8526 62.9406 87.9104C62.9406 88.9682 63.8009 89.8258 64.8621 89.8258Z" fill="white"/>
<path d="M62.9406 93.6979C64.0019 93.6979 64.8622 92.8403 64.8622 91.7825C64.8622 90.7246 64.0019 89.8671 62.9406 89.8671C61.8794 89.8671 61.019 90.7246 61.019 91.7825C61.019 92.8403 61.8794 93.6979 62.9406 93.6979Z" fill="white"/>
<path d="M65.591 97.2645C66.6523 97.2645 67.5126 96.407 67.5126 95.3491C67.5126 94.2913 66.6523 93.4337 65.591 93.4337C64.5298 93.4337 63.6694 94.2913 63.6694 95.3491C63.6694 96.407 64.5298 97.2645 65.591 97.2645Z" fill="white"/>
<path d="M63.5949 101.26C64.6562 101.26 65.5165 100.403 65.5165 99.3451C65.5165 98.2872 64.6562 97.4297 63.5949 97.4297C62.5337 97.4297 61.6733 98.2872 61.6733 99.3451C61.6733 100.403 62.5337 101.26 63.5949 101.26Z" fill="white"/>
<path d="M60.2569 105.256C61.3182 105.256 62.1785 104.399 62.1785 103.341C62.1785 102.283 61.3182 101.426 60.2569 101.426C59.1957 101.426 58.3353 102.283 58.3353 103.341C58.3353 104.399 59.1957 105.256 60.2569 105.256Z" fill="white"/>
<path d="M48.9841 109.261C50.0454 109.261 50.9057 108.403 50.9057 107.345C50.9057 106.287 50.0454 105.43 48.9841 105.43C47.9228 105.43 47.0625 106.287 47.0625 107.345C47.0625 108.403 47.9228 109.261 48.9841 109.261Z" fill="white"/>
<path d="M54.2437 108.055C55.305 108.055 56.1653 107.198 56.1653 106.14C56.1653 105.082 55.305 104.224 54.2437 104.224C53.1825 104.224 52.3221 105.082 52.3221 106.14C52.3221 107.198 53.1825 108.055 54.2437 108.055Z" fill="white"/>
<path d="M56.8279 101.426C57.5598 101.426 58.1532 100.834 58.1532 100.105C58.1532 99.3751 57.5598 98.7837 56.8279 98.7837C56.096 98.7837 55.5027 99.3751 55.5027 100.105C55.5027 100.834 56.096 101.426 56.8279 101.426Z" fill="white"/>
<path d="M58.1614 98.2306C58.8933 98.2306 59.4867 97.6391 59.4867 96.9096C59.4867 96.18 58.8933 95.5886 58.1614 95.5886C57.4295 95.5886 56.8362 96.18 56.8362 96.9096C56.8362 97.6391 57.4295 98.2306 58.1614 98.2306Z" fill="white"/>
<path d="M52.5043 102.581C53.2362 102.581 53.8296 101.99 53.8296 101.26C53.8296 100.531 53.2362 99.9395 52.5043 99.9395C51.7724 99.9395 51.1791 100.531 51.1791 101.26C51.1791 101.99 51.7724 102.581 52.5043 102.581Z" fill="white"/>
<path d="M42.391 101.227C43.1229 101.227 43.7163 100.636 43.7163 99.9064C43.7163 99.1769 43.1229 98.5854 42.391 98.5854C41.6591 98.5854 41.0658 99.1769 41.0658 99.9064C41.0658 100.636 41.6591 101.227 42.391 101.227Z" fill="white"/>
<path d="M40.5855 97.9911C41.3174 97.9911 41.9107 97.3996 41.9107 96.6701C41.9107 95.9405 41.3174 95.3491 40.5855 95.3491C39.8536 95.3491 39.2603 95.9405 39.2603 96.6701C39.2603 97.3996 39.8536 97.9911 40.5855 97.9911Z" fill="white"/>
<path d="M38.7798 94.7547C39.5117 94.7547 40.1051 94.1633 40.1051 93.4338C40.1051 92.7042 39.5117 92.1128 38.7798 92.1128C38.0479 92.1128 37.4546 92.7042 37.4546 93.4338C37.4546 94.1633 38.0479 94.7547 38.7798 94.7547Z" fill="white"/>
<path d="M38.9041 90.7175C39.636 90.7175 40.2293 90.1261 40.2293 89.3965C40.2293 88.667 39.636 88.0756 38.9041 88.0756C38.1722 88.0756 37.5789 88.667 37.5789 89.3965C37.5789 90.1261 38.1722 90.7175 38.9041 90.7175Z" fill="white"/>
<path d="M42.7555 86.2428C43.4874 86.2428 44.0808 85.6514 44.0808 84.9218C44.0808 84.1922 43.4874 83.6008 42.7555 83.6008C42.0236 83.6008 41.4303 84.1922 41.4303 84.9218C41.4303 85.6514 42.0236 86.2428 42.7555 86.2428Z" fill="white"/>
<path d="M46.4247 83.766C47.1566 83.766 47.75 83.1745 47.75 82.445C47.75 81.7154 47.1566 81.124 46.4247 81.124C45.6928 81.124 45.0995 81.7154 45.0995 82.445C45.0995 83.1745 45.6928 83.766 46.4247 83.766Z" fill="white"/>
<path d="M54.5087 84.6988C55.2406 84.6988 55.834 84.1074 55.834 83.3778C55.834 82.6483 55.2406 82.0569 54.5087 82.0569C53.7768 82.0569 53.1835 82.6483 53.1835 83.3778C53.1835 84.1074 53.7768 84.6988 54.5087 84.6988Z" fill="white"/>
<path d="M49.6882 81.8258C50.2143 81.8258 50.6407 81.4007 50.6407 80.8763C50.6407 80.352 50.2143 79.9269 49.6882 79.9269C49.1622 79.9269 48.7357 80.352 48.7357 80.8763C48.7357 81.4007 49.1622 81.8258 49.6882 81.8258Z" fill="white"/>
<path d="M40.9581 82.9815C41.4842 82.9815 41.9106 82.5565 41.9106 82.0321C41.9106 81.5077 41.4842 81.0826 40.9581 81.0826C40.4321 81.0826 40.0056 81.5077 40.0056 82.0321C40.0056 82.5565 40.4321 82.9815 40.9581 82.9815Z" fill="white"/>
<path d="M41.538 94.119C42.064 94.119 42.4905 93.6939 42.4905 93.1695C42.4905 92.6452 42.064 92.2201 41.538 92.2201C41.0119 92.2201 40.5854 92.6452 40.5854 93.1695C40.5854 93.6939 41.0119 94.119 41.538 94.119Z" fill="white"/>
<path d="M46.6318 101.054C47.1579 101.054 47.5844 100.629 47.5844 100.105C47.5844 99.5802 47.1579 99.1552 46.6318 99.1552C46.1058 99.1552 45.6793 99.5802 45.6793 100.105C45.6793 100.629 46.1058 101.054 46.6318 101.054Z" fill="white"/>
<path d="M51.1708 98.5689C51.6968 98.5689 52.1233 98.1439 52.1233 97.6195C52.1233 97.0951 51.6968 96.67 51.1708 96.67C50.6447 96.67 50.2183 97.0951 50.2183 97.6195C50.2183 98.1439 50.6447 98.5689 51.1708 98.5689Z" fill="white"/>
<path d="M53.4734 97.6196C53.9994 97.6196 54.4259 97.1945 54.4259 96.6701C54.4259 96.1458 53.9994 95.7207 53.4734 95.7207C52.9473 95.7207 52.5209 96.1458 52.5209 96.6701C52.5209 97.1945 52.9473 97.6196 53.4734 97.6196Z" fill="white"/>
<path d="M56.9522 90.7671C57.4782 90.7671 57.9047 90.342 57.9047 89.8176C57.9047 89.2932 57.4782 88.8682 56.9522 88.8682C56.4261 88.8682 55.9996 89.2932 55.9996 89.8176C55.9996 90.342 56.4261 90.7671 56.9522 90.7671Z" fill="white"/>
<path d="M60.4226 89.6112C60.9487 89.6112 61.3751 89.1861 61.3751 88.6617C61.3751 88.1374 60.9487 87.7123 60.4226 87.7123C59.8965 87.7123 59.4701 88.1374 59.4701 88.6617C59.4701 89.1861 59.8965 89.6112 60.4226 89.6112Z" fill="white"/>
<path d="M57.9626 86.738C58.4887 86.738 58.9152 86.3129 58.9152 85.7886C58.9152 85.2642 58.4887 84.8391 57.9626 84.8391C57.4366 84.8391 57.0101 85.2642 57.0101 85.7886C57.0101 86.3129 57.4366 86.738 57.9626 86.738Z" fill="white"/>
<path d="M48.9842 94.1025C50.4892 94.1025 51.7092 92.8864 51.7092 91.3863C51.7092 89.8861 50.4892 88.67 48.9842 88.67C47.4792 88.67 46.2592 89.8861 46.2592 91.3863C46.2592 92.8864 47.4792 94.1025 48.9842 94.1025Z" fill="white"/>
<path d="M33.015 95.085C34.0762 95.085 34.9366 94.2274 34.9366 93.1696C34.9366 92.1117 34.0762 91.2542 33.015 91.2542C31.9537 91.2542 31.0934 92.1117 31.0934 93.1696C31.0934 94.2274 31.9537 95.085 33.015 95.085Z" fill="white"/>
<path d="M35.8311 101.822C36.8924 101.822 37.7527 100.964 37.7527 99.9065C37.7527 98.8486 36.8924 97.9911 35.8311 97.9911C34.7699 97.9911 33.9095 98.8486 33.9095 99.9065C33.9095 100.964 34.7699 101.822 35.8311 101.822Z" fill="white"/>
<path d="M44.5114 108.336C45.5727 108.336 46.433 107.478 46.433 106.421C46.433 105.363 45.5727 104.505 44.5114 104.505C43.4502 104.505 42.5898 105.363 42.5898 106.421C42.5898 107.478 43.4502 108.336 44.5114 108.336Z" fill="white"/>
<path d="M37.7528 106.421C38.814 106.421 39.6744 105.563 39.6744 104.505C39.6744 103.447 38.814 102.59 37.7528 102.59C36.6915 102.59 35.8312 103.447 35.8312 104.505C35.8312 105.563 36.6915 106.421 37.7528 106.421Z" fill="white"/>
</g>
<defs>
<linearGradient id="paint0_linear_294_1477" x1="71.3475" y1="53.9285" x2="159.418" y2="53.9285" gradientUnits="userSpaceOnUse">
<stop stop-color="white"/>
<stop offset="1" stop-color="white"/>
</linearGradient>
<clipPath id="clip0_294_1477">
<rect width="161" height="146" fill="white"/>
</clipPath>
</defs>
</svg>
