<svg width="473" height="116" viewBox="0 0 473 116" fill="none" xmlns="http://www.w3.org/2000/svg">
<g clip-path="url(#clip0_169_2633)">
<path d="M214.76 27.7444C214.76 11.8218 226.092 0.320618 241.303 0.320618C249.37 0.320618 256.313 3.44637 260.915 9.23034L254.962 15.2414C251.35 11.047 246.895 8.9899 241.717 8.9899C231.456 8.9899 224.018 16.7642 224.018 27.731C224.018 38.6979 231.456 46.4722 241.717 46.4722C246.881 46.4722 251.35 44.415 254.962 40.1539L260.915 46.2451C256.313 52.029 249.37 55.1548 241.236 55.1548C226.092 55.1548 214.76 43.6536 214.76 27.731V27.7444Z" fill="#91B8C4"/>
<path d="M370.871 20.0502C370.871 31.7784 362.804 39.0184 349.773 39.0184H338.589V54.4067H329.385V1.09534H349.773C362.804 1.09534 370.871 8.25517 370.871 20.0636V20.0502ZM361.6 20.0502C361.6 13.3445 357.426 9.45738 349.359 9.45738H338.603V30.6297H349.359C357.426 30.6297 361.6 26.7425 361.6 20.0368V20.0502Z" fill="#91B8C4"/>
<path d="M417.949 46.1115V54.4201H380.784V1.09534H416.959V9.39059H389.988V23.2561H413.922V31.4044H389.988V46.0981H417.949V46.1115Z" fill="#91B8C4"/>
<path d="M472.251 1.09534V54.4201H464.679L437.347 18.3137V54.4201H428.21V1.09534H435.782L463.114 37.2017V1.09534H472.251Z" fill="#91B8C4"/>
<path d="M260.527 59.7766V113.101H251.323V90.246H225.69V113.101H216.486V59.7766H225.69V81.7904H251.323V59.7766H260.527Z" fill="#91B8C4"/>
<path d="M305.986 100.759H281.21L276.327 113.101H266.842L289.143 59.7766H298.2L320.569 113.101H310.936L305.986 100.759ZM302.936 92.9844L293.598 69.6748L284.327 92.9844H302.95H302.936Z" fill="#91B8C4"/>
<path d="M360.717 85.8245H369.426V107.077C364.262 111.565 357.038 113.863 350.028 113.863C334.669 113.863 323.338 102.362 323.338 86.439C323.338 70.5163 334.669 59.0152 350.175 59.0152C358.456 59.0152 365.399 61.9807 370.068 67.6978L364.262 73.789C360.369 69.5947 355.914 67.6978 350.603 67.6978C340.061 67.6978 332.622 75.392 332.622 86.439C332.622 97.486 340.061 105.18 350.536 105.18C354.081 105.18 357.546 104.419 360.73 102.442V85.8379L360.717 85.8245Z" fill="#91B8C4"/>
<path d="M418.698 104.793V113.101H381.533V59.7766H417.708V68.0719H390.737V81.9374H414.671V90.0857H390.737V104.779H418.698V104.793Z" fill="#91B8C4"/>
<path d="M473 59.7766V113.101H465.428L438.096 76.9949V113.101H428.959V59.7766H436.531L463.863 95.883V59.7766H473Z" fill="#91B8C4"/>
<path d="M0 64.532V0H21.2714V63.7172C21.2714 87.2404 31.907 97.3791 50.3957 97.3791C68.8844 97.3791 79.3595 87.2538 79.3595 63.7172V0H100.31V64.532C100.31 97.86 81.4867 116 50.2352 116C18.9837 116 0 97.8733 0 64.532Z" fill="#5B9AAF"/>
<path d="M155.963 40.6882L184.927 0H208.004L167.91 55.2216L124.538 114.37H100.31L142.866 56.0364" fill="#5B9AAF"/>
<path d="M210.747 114.37C182.72 76.2469 154.692 38.1235 126.665 0H102.611C130.344 38.1235 158.064 76.2469 185.797 114.37" fill="url(#paint0_linear_169_2633)"/>
<path d="M267.537 23.7236C269.252 23.7236 270.641 22.3362 270.641 20.6246C270.641 18.9131 269.252 17.5256 267.537 17.5256C265.823 17.5256 264.434 18.9131 264.434 20.6246C264.434 22.3362 265.823 23.7236 267.537 23.7236Z" fill="#5B9AAF"/>
<path d="M273.156 19.5827C274.87 19.5827 276.26 18.1952 276.26 16.4837C276.26 14.7721 274.87 13.3846 273.156 13.3846C271.442 13.3846 270.053 14.7721 270.053 16.4837C270.053 18.1952 271.442 19.5827 273.156 19.5827Z" fill="#5B9AAF"/>
<path d="M275.658 10.8065C277.372 10.8065 278.762 9.41904 278.762 7.70749C278.762 5.99594 277.372 4.60846 275.658 4.60846C273.944 4.60846 272.554 5.99594 272.554 7.70749C272.554 9.41904 273.944 10.8065 275.658 10.8065Z" fill="#5B9AAF"/>
<path d="M286.294 8.25519C288.008 8.25519 289.397 6.86771 289.397 5.15616C289.397 3.44461 288.008 2.05713 286.294 2.05713C284.58 2.05713 283.19 3.44461 283.19 5.15616C283.19 6.86771 284.58 8.25519 286.294 8.25519Z" fill="#5B9AAF"/>
<path d="M293.678 6.7591C295.393 6.7591 296.782 5.37162 296.782 3.66007C296.782 1.94852 295.393 0.561035 293.678 0.561035C291.964 0.561035 290.575 1.94852 290.575 3.66007C290.575 5.37162 291.964 6.7591 293.678 6.7591Z" fill="#5B9AAF"/>
<path d="M300.742 6.7591C302.456 6.7591 303.846 5.37162 303.846 3.66007C303.846 1.94852 302.456 0.561035 300.742 0.561035C299.028 0.561035 297.638 1.94852 297.638 3.66007C297.638 5.37162 299.028 6.7591 300.742 6.7591Z" fill="#5B9AAF"/>
<path d="M306.709 10.3791C308.423 10.3791 309.813 8.99161 309.813 7.28006C309.813 5.56851 308.423 4.18103 306.709 4.18103C304.995 4.18103 303.605 5.56851 303.605 7.28006C303.605 8.99161 304.995 10.3791 306.709 10.3791Z" fill="#5B9AAF"/>
<path d="M314.227 18.2736C315.942 18.2736 317.331 16.8861 317.331 15.1746C317.331 13.463 315.942 12.0756 314.227 12.0756C312.513 12.0756 311.124 13.463 311.124 15.1746C311.124 16.8861 312.513 18.2736 314.227 18.2736Z" fill="#5B9AAF"/>
<path d="M318.187 26.5555C319.901 26.5555 321.291 25.168 321.291 23.4565C321.291 21.7449 319.901 20.3574 318.187 20.3574C316.473 20.3574 315.084 21.7449 315.084 23.4565C315.084 25.168 316.473 26.5555 318.187 26.5555Z" fill="#5B9AAF"/>
<path d="M315.084 32.8337C316.798 32.8337 318.187 31.4463 318.187 29.7347C318.187 28.0232 316.798 26.6357 315.084 26.6357C313.369 26.6357 311.98 28.0232 311.98 29.7347C311.98 31.4463 313.369 32.8337 315.084 32.8337Z" fill="#5B9AAF"/>
<path d="M319.365 38.5909C321.079 38.5909 322.468 37.2035 322.468 35.4919C322.468 33.7804 321.079 32.3929 319.365 32.3929C317.65 32.3929 316.261 33.7804 316.261 35.4919C316.261 37.2035 317.65 38.5909 319.365 38.5909Z" fill="#5B9AAF"/>
<path d="M316.141 45.0695C317.855 45.0695 319.244 43.682 319.244 41.9705C319.244 40.2589 317.855 38.8715 316.141 38.8715C314.426 38.8715 313.037 40.2589 313.037 41.9705C313.037 43.682 314.426 45.0695 316.141 45.0695Z" fill="#5B9AAF"/>
<path d="M310.762 51.5348C312.477 51.5348 313.866 50.1473 313.866 48.4358C313.866 46.7242 312.477 45.3367 310.762 45.3367C309.048 45.3367 307.659 46.7242 307.659 48.4358C307.659 50.1473 309.048 51.5348 310.762 51.5348Z" fill="#5B9AAF"/>
<path d="M292.541 58C294.255 58 295.645 56.6125 295.645 54.901C295.645 53.1894 294.255 51.8019 292.541 51.8019C290.827 51.8019 289.438 53.1894 289.438 54.901C289.438 56.6125 290.827 58 292.541 58Z" fill="#5B9AAF"/>
<path d="M301.036 56.0631C302.751 56.0631 304.14 54.6756 304.14 52.9641C304.14 51.2525 302.751 49.8651 301.036 49.8651C299.322 49.8651 297.933 51.2525 297.933 52.9641C297.933 54.6756 299.322 56.0631 301.036 56.0631Z" fill="#5B9AAF"/>
<path d="M305.21 45.3367C306.393 45.3367 307.351 44.3798 307.351 43.1995C307.351 42.0191 306.393 41.0622 305.21 41.0622C304.028 41.0622 303.07 42.0191 303.07 43.1995C303.07 44.3798 304.028 45.3367 305.21 45.3367Z" fill="#5B9AAF"/>
<path d="M307.364 40.1539C308.547 40.1539 309.505 39.197 309.505 38.0166C309.505 36.8362 308.547 35.8793 307.364 35.8793C306.182 35.8793 305.224 36.8362 305.224 38.0166C305.224 39.197 306.182 40.1539 307.364 40.1539Z" fill="#5B9AAF"/>
<path d="M298.227 47.1935C299.409 47.1935 300.368 46.2366 300.368 45.0562C300.368 43.8758 299.409 42.9189 298.227 42.9189C297.045 42.9189 296.087 43.8758 296.087 45.0562C296.087 46.2366 297.045 47.1935 298.227 47.1935Z" fill="#5B9AAF"/>
<path d="M281.892 45.0161C283.074 45.0161 284.033 44.0592 284.033 42.8788C284.033 41.6985 283.074 40.7416 281.892 40.7416C280.71 40.7416 279.752 41.6985 279.752 42.8788C279.752 44.0592 280.71 45.0161 281.892 45.0161Z" fill="#5B9AAF"/>
<path d="M278.976 39.7798C280.158 39.7798 281.116 38.823 281.116 37.6426C281.116 36.4622 280.158 35.5053 278.976 35.5053C277.794 35.5053 276.835 36.4622 276.835 37.6426C276.835 38.823 277.794 39.7798 278.976 39.7798Z" fill="#5B9AAF"/>
<path d="M276.059 34.5435C277.242 34.5435 278.2 33.5866 278.2 32.4062C278.2 31.2259 277.242 30.269 276.059 30.269C274.877 30.269 273.919 31.2259 273.919 32.4062C273.919 33.5866 274.877 34.5435 276.059 34.5435Z" fill="#5B9AAF"/>
<path d="M276.26 27.9982C277.442 27.9982 278.401 27.0413 278.401 25.8609C278.401 24.6805 277.442 23.7236 276.26 23.7236C275.078 23.7236 274.12 24.6805 274.12 25.8609C274.12 27.0413 275.078 27.9982 276.26 27.9982Z" fill="#5B9AAF"/>
<path d="M282.481 20.7715C283.663 20.7715 284.621 19.8147 284.621 18.6343C284.621 17.4539 283.663 16.497 282.481 16.497C281.299 16.497 280.34 17.4539 280.34 18.6343C280.34 19.8147 281.299 20.7715 282.481 20.7715Z" fill="#5B9AAF"/>
<path d="M288.407 16.7508C289.59 16.7508 290.548 15.7939 290.548 14.6135C290.548 13.4331 289.59 12.4763 288.407 12.4763C287.225 12.4763 286.267 13.4331 286.267 14.6135C286.267 15.7939 287.225 16.7508 288.407 16.7508Z" fill="#5B9AAF"/>
<path d="M301.465 18.2736C302.647 18.2736 303.605 17.3167 303.605 16.1363C303.605 14.956 302.647 13.9991 301.465 13.9991C300.282 13.9991 299.324 14.956 299.324 16.1363C299.324 17.3167 300.282 18.2736 301.465 18.2736Z" fill="#5B9AAF"/>
<path d="M293.678 13.6251C294.528 13.6251 295.217 12.9373 295.217 12.0889C295.217 11.2405 294.528 10.5527 293.678 10.5527C292.829 10.5527 292.14 11.2405 292.14 12.0889C292.14 12.9373 292.829 13.6251 293.678 13.6251Z" fill="#5B9AAF"/>
<path d="M279.578 15.4952C280.428 15.4952 281.116 14.8074 281.116 13.959C281.116 13.1106 280.428 12.4229 279.578 12.4229C278.728 12.4229 278.039 13.1106 278.039 13.959C278.039 14.8074 278.728 15.4952 279.578 15.4952Z" fill="#5B9AAF"/>
<path d="M280.514 33.5149C281.364 33.5149 282.053 32.8272 282.053 31.9788C282.053 31.1304 281.364 30.4426 280.514 30.4426C279.665 30.4426 278.976 31.1304 278.976 31.9788C278.976 32.8272 279.665 33.5149 280.514 33.5149Z" fill="#5B9AAF"/>
<path d="M288.755 44.7356C289.605 44.7356 290.294 44.0478 290.294 43.1994C290.294 42.351 289.605 41.6633 288.755 41.6633C287.906 41.6633 287.217 42.351 287.217 43.1994C287.217 44.0478 287.906 44.7356 288.755 44.7356Z" fill="#5B9AAF"/>
<path d="M296.073 40.7149C296.923 40.7149 297.612 40.0271 297.612 39.1787C297.612 38.3303 296.923 37.6426 296.073 37.6426C295.223 37.6426 294.535 38.3303 294.535 39.1787C294.535 40.0271 295.223 40.7149 296.073 40.7149Z" fill="#5B9AAF"/>
<path d="M299.806 39.1787C300.655 39.1787 301.344 38.4909 301.344 37.6425C301.344 36.7941 300.655 36.1064 299.806 36.1064C298.956 36.1064 298.267 36.7941 298.267 37.6425C298.267 38.4909 298.956 39.1787 299.806 39.1787Z" fill="#5B9AAF"/>
<path d="M305.411 28.0917C306.261 28.0917 306.95 27.4039 306.95 26.5555C306.95 25.7071 306.261 25.0193 305.411 25.0193C304.561 25.0193 303.873 25.7071 303.873 26.5555C303.873 27.4039 304.561 28.0917 305.411 28.0917Z" fill="#5B9AAF"/>
<path d="M311.017 26.2215C311.866 26.2215 312.555 25.5338 312.555 24.6854C312.555 23.837 311.866 23.1492 311.017 23.1492C310.167 23.1492 309.478 23.837 309.478 24.6854C309.478 25.5338 310.167 26.2215 311.017 26.2215Z" fill="#5B9AAF"/>
<path d="M307.043 21.573C307.893 21.573 308.582 20.8852 308.582 20.0368C308.582 19.1884 307.893 18.5007 307.043 18.5007C306.194 18.5007 305.505 19.1884 305.505 20.0368C305.505 20.8852 306.194 21.573 307.043 21.573Z" fill="#5B9AAF"/>
<path d="M292.541 33.4749C294.972 33.4749 296.943 31.5073 296.943 29.0802C296.943 26.653 294.972 24.6854 292.541 24.6854C290.111 24.6854 288.14 26.653 288.14 29.0802C288.14 31.5073 290.111 33.4749 292.541 33.4749Z" fill="#91B8C4"/>
<path d="M266.762 35.0778C268.476 35.0778 269.865 33.6903 269.865 31.9788C269.865 30.2672 268.476 28.8798 266.762 28.8798C265.047 28.8798 263.658 30.2672 263.658 31.9788C263.658 33.6903 265.047 35.0778 266.762 35.0778Z" fill="#5B9AAF"/>
<path d="M271.297 45.9779C273.011 45.9779 274.4 44.5904 274.4 42.8789C274.4 41.1673 273.011 39.7798 271.297 39.7798C269.583 39.7798 268.193 41.1673 268.193 42.8789C268.193 44.5904 269.583 45.9779 271.297 45.9779Z" fill="#5B9AAF"/>
<path d="M285.317 56.5039C287.031 56.5039 288.421 55.1164 288.421 53.4049C288.421 51.6933 287.031 50.3058 285.317 50.3058C283.603 50.3058 282.213 51.6933 282.213 53.4049C282.213 55.1164 283.603 56.5039 285.317 56.5039Z" fill="#5B9AAF"/>
<path d="M274.4 53.4182C276.115 53.4182 277.504 52.0307 277.504 50.3192C277.504 48.6076 276.115 47.2202 274.4 47.2202C272.686 47.2202 271.297 48.6076 271.297 50.3192C271.297 52.0307 272.686 53.4182 274.4 53.4182Z" fill="#5B9AAF"/>
</g>
<defs>
<linearGradient id="paint0_linear_169_2633" x1="102.611" y1="57.1852" x2="210.747" y2="57.1852" gradientUnits="userSpaceOnUse">
<stop stop-color="#5B9AAF"/>
<stop offset="1" stop-color="#91B8C4"/>
</linearGradient>
<clipPath id="clip0_169_2633">
<rect width="473" height="116" fill="white"/>
</clipPath>
</defs>
</svg>
