<svg width="50" height="50" viewBox="0 0 50 50" fill="none" xmlns="http://www.w3.org/2000/svg">
<g id="mail">
<path id="Vector" fill-rule="evenodd" clip-rule="evenodd" d="M17.4926 6.25H32.5074C34.8033 6.24998 36.6551 6.24996 38.1538 6.37443C39.6972 6.5026 41.0518 6.77345 42.3018 7.42278C44.2043 8.41106 45.7556 9.96232 46.7439 11.8649C47.3932 13.1149 47.6641 14.4695 47.7922 16.0128C47.9167 17.5116 47.9167 19.3634 47.9167 21.6594V28.3406C47.9167 30.6366 47.9167 32.4884 47.7922 33.9872C47.6641 35.5305 47.3932 36.8851 46.7439 38.1352C45.7556 40.0377 44.2043 41.5889 42.3018 42.5772C41.0518 43.2266 39.6972 43.4974 38.1538 43.6256C36.6551 43.75 34.8033 43.75 32.5073 43.75H17.4927C15.1967 43.75 13.3449 43.75 11.8462 43.6256C10.3028 43.4974 8.94819 43.2266 7.69818 42.5772C5.79565 41.5889 4.24439 40.0377 3.25611 38.1352C2.60678 36.8851 2.33592 35.5305 2.20775 33.9872C2.08329 32.4884 2.08331 30.6366 2.08333 28.3407V21.6593C2.08331 19.3634 2.08329 17.5116 2.20775 16.0128C2.33592 14.4695 2.60678 13.1149 3.25611 11.8649C4.24439 9.96232 5.79565 8.41106 7.69818 7.42278C8.94819 6.77345 10.3028 6.5026 11.8462 6.37443C13.3449 6.24996 15.1967 6.24998 17.4926 6.25ZM10.9432 10.6885C12.7112 11.1034 14.3525 11.9825 15.6879 13.2543L21.8103 19.0852C22.657 19.8916 23.203 20.4094 23.6506 20.7712C24.0781 21.1168 24.2793 21.2042 24.3907 21.2383C24.7878 21.3597 25.2122 21.3597 25.6093 21.2383C25.7207 21.2042 25.9219 21.1168 26.3494 20.7712C26.797 20.4094 27.343 19.8916 28.1897 19.0852L34.3121 13.2543C35.6475 11.9825 37.2888 11.1034 39.0568 10.6885C38.7067 10.6213 38.2976 10.5674 37.809 10.5268C36.503 10.4183 34.8245 10.4167 32.4167 10.4167H17.5833C15.1755 10.4167 13.497 10.4183 12.191 10.5268C11.7024 10.5674 11.2933 10.6213 10.9432 10.6885ZM43.3554 14.5833H41.4062C39.8348 14.5833 38.3236 15.1878 37.1857 16.2716L31.0058 22.1572C30.2328 22.8934 29.5641 23.5303 28.9689 24.0115C28.3389 24.5208 27.6583 24.9688 26.8279 25.2228C25.6365 25.5871 24.3635 25.5871 23.1721 25.2228C22.3417 24.9688 21.661 24.5208 21.0311 24.0115C20.4359 23.5303 19.7671 22.8934 18.9942 22.1571L12.8143 16.2716C11.6764 15.1878 10.1652 14.5833 8.59375 14.5833H6.64461C6.51789 15.0347 6.42298 15.6009 6.36013 16.3577C6.25167 17.6637 6.25 19.3422 6.25 21.75V28.25C6.25 30.6578 6.25167 32.3363 6.36013 33.6423C6.46651 34.9234 6.66477 35.6583 6.95366 36.2144C7.54663 37.3559 8.47739 38.2867 9.61891 38.8797C10.175 39.1686 10.91 39.3668 12.191 39.4732C13.497 39.5817 15.1755 39.5833 17.5833 39.5833H32.4167C34.8245 39.5833 36.503 39.5817 37.809 39.4732C39.09 39.3668 39.8249 39.1686 40.3811 38.8797C41.5226 38.2867 42.4534 37.3559 43.0463 36.2144C43.3352 35.6583 43.5335 34.9234 43.6399 33.6423C43.7483 32.3363 43.75 30.6578 43.75 28.25V21.75C43.75 19.3422 43.7483 17.6637 43.6399 16.3577C43.577 15.6009 43.4821 15.0347 43.3554 14.5833Z" fill="#13293D"/>
</g>
</svg>
